<svg width="16" height="6" viewBox="0 0 16 6" fill="none" xmlns="http://www.w3.org/2000/svg">
<path d="M13.942 0.160875C14.4063 -0.138178 15.0252 -0.00421003 15.3242 0.460102C15.4323 0.627873 15.4838 0.815819 15.4836 1.00156C15.4833 1.32988 15.3215 1.65132 15.025 1.84231L9.60796 5.33132C9.60534 5.33301 9.60272 5.33469 9.60009 5.33637L9.06648 5.68006C8.40697 6.10483 7.56004 6.10483 6.90054 5.68006L6.36689 5.33634C6.36427 5.33467 6.36166 5.333 6.35905 5.33132L0.942034 1.84231C0.767912 1.73016 0.640254 1.57304 0.564462 1.39597C0.457584 1.14627 0.453847 0.856894 0.568434 0.597966C0.589279 0.550863 0.614041 0.504766 0.64281 0.4601C0.941864 -0.00421116 1.56069 -0.138179 2.02501 0.160876L7.44202 3.6499L7.44658 3.65281C7.77415 3.86131 8.19288 3.86131 8.52045 3.65281L13.942 0.160875Z" fill="#fff"/>
</svg>
