<svg width="104" height="104" viewBox="0 0 104 104" fill="none" xmlns="http://www.w3.org/2000/svg">
<rect width="104" height="104" rx="16" fill="#E4EFFF"/>
<path fill-rule="evenodd" clip-rule="evenodd" d="M79.4689 79.6451C78.8365 80.1802 77.89 80.1013 77.3549 79.4689C72.1606 73.3302 62.0919 68.5 52 68.5C41.9081 68.5 31.8393 73.3302 26.6451 79.4689C26.11 80.1013 25.1635 80.1802 24.5311 79.6451C23.8987 79.11 23.8198 78.1635 24.355 77.5311C30.1607 70.6698 41.0919 65.5 52 65.5C62.9081 65.5 73.8393 70.6698 79.645 77.5311C80.1802 78.1635 80.1013 79.11 79.4689 79.6451ZM34.5 41.5C34.5 31.835 42.335 24 52 24C61.665 24 69.5 31.835 69.5 41.5C69.5 51.165 61.665 59 52 59C42.335 59 34.5 51.165 34.5 41.5ZM37.5 41.5C37.5 49.5081 43.9919 56 52 56C60.0081 56 66.5 49.5081 66.5 41.5C66.5 33.4919 60.0081 27 52 27C43.9919 27 37.5 33.4919 37.5 41.5Z" fill="#4D49FE"/>
</svg>
