<svg width="17" height="16" viewBox="0 0 17 16" fill="none" xmlns="http://www.w3.org/2000/svg">
<path d="M9.20561 2V2C6.27243 2 4.80584 2 3.89462 2.91122C3.89462 2.91122 3.89462 2.91122 3.89462 2.91122C2.9834 3.82245 2.9834 5.28904 2.9834 8.22222V12.8889C2.9834 13.6222 2.9834 13.9888 3.2112 14.2166C3.43901 14.4444 3.80566 14.4444 4.53895 14.4444H9.20561C12.1388 14.4444 13.6054 14.4444 14.5166 13.5332C14.5166 13.5332 14.5166 13.5332 14.5166 13.5332C15.4278 12.622 15.4278 11.1554 15.4278 8.22222V8.22222" stroke="#050731" stroke-width="1.55555"/>
<path d="M9.20552 14.4443V14.4443C12.1387 14.4443 13.6053 14.4443 14.5165 13.5331C14.5165 13.5331 14.5165 13.5331 14.5165 13.5331C15.4277 12.6219 15.4277 11.1553 15.4277 8.22212V3.55546C15.4277 2.82216 15.4277 2.45551 15.1999 2.22771C14.9721 1.9999 14.6055 1.9999 13.8722 1.9999H9.20552C6.27234 1.9999 4.80575 1.9999 3.89453 2.91112C3.89453 2.91112 3.89453 2.91112 3.89453 2.91112C2.9833 3.82235 2.9833 5.28894 2.9833 8.22212V8.22212" stroke="#050731" stroke-width="1.55555"/>
<path d="M5.87207 7.22217L10.5387 7.22217" stroke="#050731" stroke-width="1.55555" stroke-linecap="round" stroke-linejoin="round"/>
<path d="M5.87207 10.3333H8.2054" stroke="#050731" stroke-width="1.55555" stroke-linecap="round" stroke-linejoin="round"/>
</svg>
