<svg width="17" height="16" viewBox="0 0 17 16" fill="none" xmlns="http://www.w3.org/2000/svg">
<path d="M8.98329 13.5643C8.98329 13.1417 8.64033 12.7988 8.21776 12.7988H4.84942V2.53106H8.21776C8.42079 2.53106 8.6155 2.45041 8.75907 2.30684C8.90263 2.16328 8.98329 1.96856 8.98329 1.76553C8.98329 1.5625 8.90263 1.36778 8.75907 1.22422C8.6155 1.08065 8.42079 1 8.21776 1H4.69632C4.33086 1 3.98037 1.14518 3.72195 1.40359C3.46354 1.66201 3.31836 2.0125 3.31836 2.37795V12.9519C3.31836 13.3173 3.46354 13.6678 3.72195 13.9263C3.98037 14.1847 4.33086 14.3298 4.69632 14.3298H8.21776C8.64033 14.3298 8.98329 13.9869 8.98329 13.5643Z" fill="#050731"/>
<path d="M10.8202 9.64439L12.034 8.43056H7.29873C7.0957 8.43056 6.90099 8.34991 6.75742 8.20634C6.61386 8.06278 6.5332 7.86806 6.5332 7.66503C6.5332 7.462 6.61386 7.26728 6.75742 7.12372C6.90099 6.98015 7.0957 6.8995 7.29873 6.8995H12.034L10.8202 5.68568C10.6766 5.54209 10.5959 5.34735 10.5959 5.14429C10.5959 4.94124 10.6766 4.74649 10.8202 4.60291C10.9638 4.45933 11.1585 4.37866 11.3616 4.37866C11.5646 4.37866 11.7594 4.45933 11.9029 4.60291L14.4237 7.12365C14.4948 7.19474 14.5512 7.27914 14.5897 7.37203C14.6282 7.46492 14.648 7.56448 14.648 7.66503C14.648 7.76558 14.6282 7.86514 14.5897 7.95803C14.5512 8.05092 14.4948 8.13532 14.4237 8.20641L11.9029 10.7272C11.7594 10.8707 11.5646 10.9514 11.3616 10.9514C11.1585 10.9514 10.9638 10.8707 10.8202 10.7272C10.6766 10.5836 10.5959 10.3888 10.5959 10.1858C10.5959 9.98271 10.6766 9.78797 10.8202 9.64439Z" fill="#050731"/>
</svg>
