<svg width="120" height="36" viewBox="0 0 120 36" fill="none" xmlns="http://www.w3.org/2000/svg">
<path fill-rule="evenodd" clip-rule="evenodd" d="M16.6283 3.85239C16.976 4.33175 17.181 4.92134 17.181 5.55881C17.181 7.16559 15.8785 8.46815 14.2717 8.46815C12.6649 8.46815 11.3623 7.16559 11.3623 5.55881C11.3623 3.95203 12.6649 2.64947 14.2717 2.64947C14.7375 2.64947 15.1778 2.75896 15.5682 2.95362L17.2267 0.977051H5.55917C2.48893 0.977051 0 3.46598 0 6.53622V22.39L6.84841 14.2284C6.36805 13.6236 6.0811 12.8583 6.0811 12.0259C6.0811 10.0686 7.66779 8.48195 9.62507 8.48195C11.5824 8.48195 13.169 10.0686 13.169 12.0259C13.169 13.9832 11.5824 15.5699 9.62507 15.5699C9.00231 15.5699 8.41706 15.4093 7.9085 15.1272L0 24.5522V30.4407C0 33.5109 2.48893 35.9998 5.55917 35.9998H15.3011L18.0486 32.7255C17.7009 32.2462 17.4959 31.6566 17.4959 31.0191C17.4959 29.4123 18.7984 28.1098 20.4052 28.1098C22.012 28.1098 23.3145 29.4123 23.3145 31.0191C23.3145 32.6259 22.012 33.9284 20.4052 33.9284C19.9393 33.9284 19.4991 33.8189 19.1087 33.6243L17.1154 35.9998H29.4636C32.5339 35.9998 35.0228 33.5109 35.0228 30.4407V13.776L27.8286 22.3497C28.3089 22.9544 28.5958 23.7197 28.5958 24.552C28.5958 26.5093 27.0091 28.0959 25.0518 28.0959C23.0945 28.0959 21.5078 26.5093 21.5078 24.552C21.5078 22.5947 23.0945 21.008 25.0518 21.008C25.6746 21.008 26.26 21.1687 26.7686 21.4508L35.0228 11.6138V6.53622C35.0228 3.46598 32.5339 0.977051 29.4636 0.977051H19.041L16.6283 3.85239ZM12.7521 5.55881C12.7521 4.71959 13.4325 4.03926 14.2717 4.03926C15.1109 4.03926 15.7912 4.71959 15.7912 5.55881C15.7912 6.39803 15.1109 7.07835 14.2717 7.07835C13.4325 7.07835 12.7521 6.39803 12.7521 5.55881ZM9.62507 14.1801C10.8148 14.1801 11.7793 13.2156 11.7793 12.0259C11.7793 10.8362 10.8148 9.87175 9.62507 9.87175C8.43535 9.87175 7.47089 10.8362 7.47089 12.0259C7.47089 13.2156 8.43535 14.1801 9.62507 14.1801ZM25.0518 22.3978C23.8621 22.3978 22.8976 23.3623 22.8976 24.552C22.8976 25.7417 23.8621 26.7062 25.0518 26.7062C26.2415 26.7062 27.206 25.7417 27.206 24.552C27.206 23.3623 26.2415 22.3978 25.0518 22.3978ZM20.4052 32.5386C21.2444 32.5386 21.9247 31.8583 21.9247 31.0191C21.9247 30.1799 21.2444 29.4995 20.4052 29.4995C19.566 29.4995 18.8856 30.1799 18.8856 31.0191C18.8856 31.8583 19.566 32.5386 20.4052 32.5386ZM26.5111 9.4457C26.5111 10.2849 25.8308 10.9652 24.9916 10.9652C24.1523 10.9652 23.472 10.2849 23.472 9.4457C23.472 8.60648 24.1523 7.92616 24.9916 7.92616C25.8308 7.92616 26.5111 8.60648 26.5111 9.4457ZM27.9009 9.4457C27.9009 11.0525 26.5983 12.355 24.9916 12.355C24.5257 12.355 24.0854 12.2455 23.695 12.0509L20.2348 16.1746L20.2356 16.1754L12.6001 25.275C12.9478 25.7544 13.1529 26.344 13.1529 26.9815C13.1529 28.5882 11.8503 29.8908 10.2435 29.8908C8.63673 29.8908 7.33418 28.5882 7.33418 26.9815C7.33418 25.3747 8.63674 24.0721 10.2435 24.0721C10.7094 24.0721 11.1496 24.1816 11.54 24.3763L15.0002 20.2525L14.9994 20.2518L22.6349 11.1521C22.2872 10.6727 22.0822 10.0832 22.0822 9.4457C22.0822 7.83892 23.3848 6.53636 24.9916 6.53636C26.5983 6.53636 27.9009 7.83892 27.9009 9.4457ZM10.2435 25.4619C9.4043 25.4619 8.72397 26.1422 8.72397 26.9815C8.72397 27.8207 9.4043 28.501 10.2435 28.501C11.0827 28.501 11.7631 27.8207 11.7631 26.9815C11.7631 26.1422 11.0827 25.4619 10.2435 25.4619Z" fill="#ABADAE"/>
<path d="M42.5581 15.3779V2.53019H54.2679V15.3779H51.3129V4.27381L51.992 4.95291H44.834L45.5131 4.27381V15.3779H42.5581ZM63.0507 15.5248C62.2186 15.5248 61.4906 15.3412 60.8665 14.9741C60.2425 14.6071 59.7531 14.0503 59.3982 13.3039C59.0556 12.5453 58.8843 11.5909 58.8843 10.4407C58.8843 9.27831 59.0495 8.32391 59.3799 7.57752C59.7103 6.83113 60.1875 6.27439 60.8115 5.90731C61.4355 5.54023 62.1819 5.3567 63.0507 5.3567C63.9806 5.3567 64.8126 5.57082 65.5468 5.99908C66.2932 6.4151 66.8805 7.00243 67.3088 7.76106C67.7493 8.51969 67.9695 9.41291 67.9695 10.4407C67.9695 11.4808 67.7493 12.3801 67.3088 13.1388C66.8805 13.8974 66.2932 14.4847 65.5468 14.9007C64.8126 15.3167 63.9806 15.5248 63.0507 15.5248ZM57.2141 18.9386V5.50353H59.9489V7.52246L59.8938 10.4591L60.0773 13.3774V18.9386H57.2141ZM62.5551 13.1755C63.0323 13.1755 63.4544 13.0653 63.8215 12.8451C64.2008 12.6248 64.5006 12.3128 64.7209 11.909C64.9534 11.493 65.0696 11.0036 65.0696 10.4407C65.0696 9.86564 64.9534 9.3762 64.7209 8.97242C64.5006 8.56863 64.2008 8.25661 63.8215 8.03637C63.4544 7.81612 63.0323 7.706 62.5551 7.706C62.0779 7.706 61.6496 7.81612 61.2703 8.03637C60.891 8.25661 60.5912 8.56863 60.371 8.97242C60.1507 9.3762 60.0406 9.86564 60.0406 10.4407C60.0406 11.0036 60.1507 11.493 60.371 11.909C60.5912 12.3128 60.891 12.6248 61.2703 12.8451C61.6496 13.0653 62.0779 13.1755 62.5551 13.1755ZM75.8935 15.3779V12.0926L76.2973 12.5514H73.5626C72.1432 12.5514 71.0297 12.2578 70.2222 11.6704C69.4146 11.0831 69.0108 10.2388 69.0108 9.1376C69.0108 7.96295 69.4329 7.06361 70.2772 6.43958C71.1337 5.81554 72.2839 5.50353 73.7278 5.50353H78.4447V15.3779H75.8935ZM68.864 15.3779L71.4886 11.6154H74.4069L71.9107 15.3779H68.864ZM75.8935 11.2116V7.10032L76.2973 7.83447H73.7828C73.1955 7.83447 72.7367 7.9446 72.4063 8.16484C72.0881 8.38509 71.9291 8.73993 71.9291 9.22937C71.9291 10.1715 72.5348 10.6426 73.7461 10.6426H76.2973L75.8935 11.2116ZM81.1965 15.3779V5.50353H84.1882L87.914 12.2578H86.721L90.7038 5.50353H93.3835L93.4202 15.3779H90.8323V8.44015L91.2728 8.73381L87.8773 14.4235H86.666L83.2522 8.53192L83.7844 8.40344V15.3779H81.1965ZM100.788 15.5248C99.7357 15.5248 98.7997 15.3045 97.9799 14.864C97.1723 14.4235 96.5299 13.824 96.0527 13.0653C95.5877 12.2945 95.3553 11.4196 95.3553 10.4407C95.3553 9.44962 95.5877 8.57475 96.0527 7.81612C96.5299 7.04525 97.1723 6.44569 97.9799 6.01744C98.7997 5.57694 99.7357 5.3567 100.788 5.3567C101.828 5.3567 102.758 5.57694 103.578 6.01744C104.398 6.44569 105.04 7.03914 105.505 7.79777C105.97 8.55639 106.202 9.43738 106.202 10.4407C106.202 11.4196 105.97 12.2945 105.505 13.0653C105.04 13.824 104.398 14.4235 103.578 14.864C102.758 15.3045 101.828 15.5248 100.788 15.5248ZM100.788 13.1755C101.265 13.1755 101.693 13.0653 102.073 12.8451C102.452 12.6248 102.752 12.3128 102.972 11.909C103.192 11.493 103.303 11.0036 103.303 10.4407C103.303 9.86564 103.192 9.3762 102.972 8.97242C102.752 8.56863 102.452 8.25661 102.073 8.03637C101.693 7.81612 101.265 7.706 100.788 7.706C100.311 7.706 99.8826 7.81612 99.5032 8.03637C99.1239 8.25661 98.818 8.56863 98.5856 8.97242C98.3653 9.3762 98.2552 9.86564 98.2552 10.4407C98.2552 11.0036 98.3653 11.493 98.5856 11.909C98.818 12.3128 99.1239 12.6248 99.5032 12.8451C99.8826 13.0653 100.311 13.1755 100.788 13.1755ZM108.172 15.3779V5.50353H111.017V11.3768L115.825 5.50353H118.45V15.3779H115.605V9.50468L110.815 15.3779H108.172ZM113.127 4.439C112.051 4.439 111.243 4.20652 110.705 3.74155C110.166 3.26435 109.891 2.54855 109.879 1.59414H111.751C111.763 2.01017 111.879 2.34054 112.099 2.58525C112.32 2.82997 112.656 2.95233 113.109 2.95233C113.549 2.95233 113.886 2.82997 114.118 2.58525C114.363 2.34054 114.485 2.01017 114.485 1.59414H116.394C116.394 2.54855 116.119 3.26435 115.568 3.74155C115.018 4.20652 114.204 4.439 113.127 4.439Z" fill="#ABADAE"/>
<path d="M49.3307 34.5991L46.027 29.9189L48.3579 28.5423L52.7078 34.5991H49.3307ZM42.3378 34.5991V24.7247H45.2011V34.5991H42.3378ZM44.3568 30.8549V28.5607H47.8073V30.8549H44.3568ZM48.6332 29.9923L45.9536 29.6986L49.4225 24.7247H52.4692L48.6332 29.9923ZM58.4342 34.746C57.3819 34.746 56.4459 34.5257 55.6261 34.0852C54.8185 33.6447 54.1761 33.0452 53.6989 32.2865C53.234 31.5157 53.0015 30.6408 53.0015 29.6619C53.0015 28.6708 53.234 27.7959 53.6989 27.0373C54.1761 26.2664 54.8185 25.6669 55.6261 25.2386C56.4459 24.7981 57.3819 24.5779 58.4342 24.5779C59.4743 24.5779 60.4042 24.7981 61.224 25.2386C62.0438 25.6669 62.6862 26.2603 63.1512 27.019C63.6161 27.7776 63.8486 28.6586 63.8486 29.6619C63.8486 30.6408 63.6161 31.5157 63.1512 32.2865C62.6862 33.0452 62.0438 33.6447 61.224 34.0852C60.4042 34.5257 59.4743 34.746 58.4342 34.746ZM58.4342 32.3967C58.9114 32.3967 59.3397 32.2865 59.719 32.0663C60.0983 31.846 60.3981 31.534 60.6183 31.1302C60.8386 30.7142 60.9487 30.2248 60.9487 29.6619C60.9487 29.0868 60.8386 28.5974 60.6183 28.1936C60.3981 27.7898 60.0983 27.4778 59.719 27.2576C59.3397 27.0373 58.9114 26.9272 58.4342 26.9272C57.957 26.9272 57.5288 27.0373 57.1495 27.2576C56.7701 27.4778 56.4642 27.7898 56.2318 28.1936C56.0115 28.5974 55.9014 29.0868 55.9014 29.6619C55.9014 30.2248 56.0115 30.7142 56.2318 31.1302C56.4642 31.534 56.7701 31.846 57.1495 32.0663C57.5288 32.2865 57.957 32.3967 58.4342 32.3967ZM65.8179 34.5991V24.7247H68.6628V28.579H72.9576V24.7247H75.8208V34.5991H72.9576V30.91H68.6628V34.5991H65.8179ZM80.6724 34.5991V26.4133L81.3148 27.074H77.332V24.7247H86.8577V27.074H82.8749L83.5173 26.4133V34.5991H80.6724ZM94.2939 34.5991V32.672L94.1104 32.2498V28.7993C94.1104 28.1875 93.9207 27.7103 93.5414 27.3677C93.1743 27.0251 92.6053 26.8538 91.8345 26.8538C91.3083 26.8538 90.7883 26.9394 90.2744 27.1107C89.7727 27.2698 89.3445 27.49 88.9896 27.7715L87.9618 25.7709C88.5002 25.3916 89.1487 25.0979 89.9073 24.8899C90.6659 24.6819 91.4368 24.5779 92.2199 24.5779C93.7249 24.5779 94.8935 24.9327 95.7255 25.6424C96.5575 26.3521 96.9736 27.4595 96.9736 28.9645V34.5991H94.2939ZM91.2838 34.746C90.513 34.746 89.8522 34.6175 89.3016 34.3605C88.751 34.0913 88.3289 33.7304 88.0352 33.2776C87.7415 32.8249 87.5947 32.3171 87.5947 31.7543C87.5947 31.1669 87.7354 30.653 88.0169 30.2125C88.3105 29.772 88.7694 29.4294 89.3934 29.1847C90.0174 28.9278 90.8311 28.7993 91.8345 28.7993H94.4591V30.4695H92.1465C91.4735 30.4695 91.0085 30.5796 90.7516 30.7999C90.5069 31.0201 90.3845 31.2954 90.3845 31.6258C90.3845 31.9929 90.5252 32.2865 90.8066 32.5068C91.1003 32.7148 91.498 32.8188 91.9997 32.8188C92.4769 32.8188 92.9051 32.7087 93.2844 32.4884C93.6637 32.2559 93.939 31.9195 94.1104 31.479L94.5508 32.8004C94.3428 33.4367 93.9635 33.92 93.4129 34.2504C92.8623 34.5808 92.1526 34.746 91.2838 34.746ZM106.454 34.5991L103.15 29.9189L105.481 28.5423L109.831 34.5991H106.454ZM99.4608 34.5991V24.7247H102.324V34.5991H99.4608ZM101.48 30.8549V28.5607H104.93V30.8549H101.48ZM105.756 29.9923L103.077 29.6986L106.545 24.7247H109.592L105.756 29.9923ZM113.258 34.5991V26.4133L113.9 27.074H109.917V24.7247H119.443V27.074H115.46L116.103 26.4133V34.5991H113.258Z" fill="#ABADAE"/>
</svg>
