<svg width="17" height="16" viewBox="0 0 17 16"  xmlns="http://www.w3.org/2000/svg">
<g clip-path="url(#clip0_687_2590)">
<path d="M8.98261 0.775469C4.83729 0.775469 1.47176 4.141 1.47176 8.28633C1.47176 12.4317 4.83729 15.7972 8.98261 15.7972C13.1279 15.7972 16.4935 12.4317 16.4935 8.28633C16.4935 4.141 13.1279 0.775469 8.98261 0.775469ZM8.98261 2.07833C12.4087 2.07833 15.1906 4.86022 15.1906 8.28633C15.1906 11.7124 12.4087 14.4943 8.98261 14.4943C5.55651 14.4943 2.77462 11.7124 2.77462 8.28633C2.77462 4.86022 5.55651 2.07833 8.98261 2.07833Z"   stroke-width="0.16"/>
<path fill-rule="evenodd" clip-rule="evenodd" d="M8.98298 10.5714C9.13453 10.5714 9.27988 10.6316 9.38704 10.7387C9.4942 10.8459 9.55441 10.9912 9.55441 11.1428C9.55441 11.2943 9.4942 11.4397 9.38704 11.5468C9.27988 11.654 9.13453 11.7142 8.98298 11.7142C8.83143 11.7142 8.68608 11.654 8.57892 11.5468C8.47176 11.4397 8.41155 11.2943 8.41155 11.1428C8.41155 10.9912 8.47176 10.8459 8.57892 10.7387C8.68608 10.6316 8.83143 10.5714 8.98298 10.5714ZM9.57841 8.77822C10.0635 8.64716 10.492 8.36002 10.7976 7.96114C11.1032 7.56227 11.269 7.07385 11.2693 6.57136C11.2693 5.31022 10.2447 4.28564 8.98298 4.28564C7.72184 4.28564 6.69727 5.31022 6.69727 6.57136C6.69727 6.72291 6.75747 6.86826 6.86463 6.97542C6.9718 7.08258 7.11714 7.14279 7.26869 7.14279C7.42025 7.14279 7.56559 7.08258 7.67276 6.97542C7.77992 6.86826 7.84012 6.72291 7.84012 6.57136C7.8402 6.35858 7.89968 6.15005 8.01186 5.96924C8.12404 5.78843 8.28447 5.64254 8.47508 5.54797C8.66569 5.45341 8.87892 5.41394 9.09075 5.43401C9.30258 5.45407 9.50461 5.53288 9.67408 5.66155C9.84354 5.79022 9.97373 5.96364 10.05 6.1623C10.1262 6.36095 10.1455 6.57694 10.1056 6.78595C10.0657 6.99496 9.96828 7.18869 9.82425 7.34532C9.68023 7.50195 9.49535 7.61526 9.29041 7.6725C9.05314 7.72354 8.83998 7.85302 8.6853 8.04004C8.53063 8.22706 8.44345 8.46073 8.43784 8.70336C8.41155 9.03936 8.41155 9.4285 8.41155 9.4285C8.41155 9.58005 8.47176 9.7254 8.57892 9.83256C8.68608 9.93973 8.83143 9.99993 8.98298 9.99993C9.13453 9.99993 9.27988 9.93973 9.38704 9.83256C9.4942 9.7254 9.55441 9.58005 9.55441 9.4285C9.55441 9.4285 9.55441 9.07764 9.57841 8.77822Z"   stroke-width="0.16"/>
</g>
<defs>
<clipPath id="clip0_687_2590">
<rect width="16" height="16" fill="white" transform="translate(0.983398)"/>
</clipPath>
</defs>
</svg>
