<svg width="17" height="18" viewBox="0 0 17 18" xmlns="http://www.w3.org/2000/svg">
<path  d="M2.03373 3.05033C1.60507 3.47898 1.36426 4.06036 1.36426 4.66657V12.2856C1.36426 12.8918 1.60507 13.4732 2.03373 13.9019C2.46238 14.3305 3.04376 14.5713 3.64997 14.5713H6.31664L8.37378 17.3142C8.44475 17.4088 8.53678 17.4856 8.64257 17.5385C8.74837 17.5914 8.86502 17.619 8.98331 17.619C9.10159 17.619 9.21825 17.5914 9.32404 17.5385C9.42983 17.4856 9.52186 17.4088 9.59283 17.3142L11.65 14.5713H14.3166C14.9228 14.5713 15.5042 14.3305 15.9329 13.9019C16.3615 13.4732 16.6024 12.8918 16.6024 12.2856V4.66657C16.6024 4.06036 16.3615 3.47898 15.9329 3.05033C15.5042 2.62168 14.9228 2.38086 14.3166 2.38086H3.64997C3.04376 2.38086 2.46238 2.62168 2.03373 3.05033ZM3.11122 4.12783C3.25411 3.98494 3.4479 3.90467 3.64997 3.90467H14.3166C14.5187 3.90467 14.7125 3.98494 14.8554 4.12783C14.9983 4.27071 15.0785 4.4645 15.0785 4.66657V12.2856C15.0785 12.4877 14.9983 12.6815 14.8554 12.8244C14.7125 12.9673 14.5187 13.0475 14.3166 13.0475H11.269C11.1507 13.0475 11.0341 13.0751 10.9283 13.128C10.8225 13.1809 10.7305 13.2577 10.6595 13.3523L8.98331 15.587L7.30712 13.3523C7.23615 13.2577 7.14412 13.1809 7.03833 13.128C6.93253 13.0751 6.81587 13.0475 6.69759 13.0475H3.64997C3.4479 13.0475 3.25411 12.9673 3.11122 12.8244C2.96834 12.6815 2.88807 12.4877 2.88807 12.2856V4.66657C2.88807 4.4645 2.96834 4.27071 3.11122 4.12783ZM8.44453 9.77668C8.58742 9.91957 8.78121 9.99984 8.98328 9.99984C9.18535 9.99984 9.37914 9.91957 9.52203 9.77668C9.66491 9.6338 9.74518 9.44 9.74518 9.23793V5.42841C9.74518 5.22634 9.66491 5.03255 9.52203 4.88966C9.37914 4.74678 9.18535 4.6665 8.98328 4.6665C8.78121 4.6665 8.58742 4.74678 8.44453 4.88966C8.30165 5.03255 8.22137 5.22634 8.22137 5.42841V9.23793C8.22137 9.44 8.30165 9.6338 8.44453 9.77668ZM9.52203 12.0624C9.37914 12.2053 9.18535 12.2856 8.98328 12.2856C8.78121 12.2856 8.58742 12.2053 8.44453 12.0624C8.30165 11.9195 8.22137 11.7257 8.22137 11.5236C8.22137 11.3216 8.30165 11.1278 8.44453 10.9849C8.58742 10.842 8.78121 10.7617 8.98328 10.7617C9.18535 10.7617 9.37914 10.842 9.52203 10.9849C9.66491 11.1278 9.74518 11.3216 9.74518 11.5236C9.74518 11.7257 9.66491 11.9195 9.52203 12.0624Z" />
</svg>
