<svg width="120" height="38" viewBox="0 0 120 38" fill="none" xmlns="http://www.w3.org/2000/svg">
<path d="M0 36.681H13.1401V26.2463H22.9952C24.7343 26.053 26.4734 25.8598 27.8261 25.2801C29.372 24.8936 30.5314 24.1207 31.4976 23.3477C32.4638 22.5748 33.43 21.6086 34.0097 20.6424C34.7826 19.6762 35.1691 18.3236 35.5556 16.9709C35.942 15.6182 36.1353 14.0723 35.942 12.5265C35.942 10.9806 35.7488 9.6279 35.1691 8.46848C34.7826 7.30906 34.2029 6.14964 33.43 5.18346C32.8502 4.21727 31.8841 3.44433 30.9179 2.86462C29.7585 2.28491 28.599 1.7052 27.0531 1.31872C25.5072 0.932249 23.7681 0.739014 21.8358 0.739014H0V36.681ZM13.1401 8.85495C15.2657 8.85495 17.1981 8.66172 19.3237 9.04819C19.7101 9.04819 20.2899 9.24143 20.6763 9.43467C21.0628 9.6279 21.4493 9.82114 21.6425 10.0144C22.9952 11.367 23.3816 12.7197 22.9952 14.2656C22.8019 15.0385 22.6087 15.6182 22.029 16.198C21.8357 16.3912 21.4493 16.7777 21.0628 16.9709C19.7101 17.7438 17.971 17.9371 16.2319 17.9371H13.1401V8.85495Z" fill="#647084"/>
<path d="M0 36.681H13.1401V26.2463H22.9952C24.7343 26.053 26.4734 25.8598 27.8261 25.2801C29.372 24.8936 30.5314 24.1207 31.4976 23.3477C32.4638 22.5748 33.43 21.6086 34.0097 20.6424C34.7826 19.6762 35.1691 18.3236 35.5556 16.9709C35.942 15.6182 36.1353 14.0723 35.942 12.5265C35.942 10.9806 35.7488 9.6279 35.1691 8.46848C34.7826 7.30906 34.2029 6.14964 33.43 5.18346C32.8502 4.21727 31.8841 3.44433 30.9179 2.86462C29.7585 2.28491 28.599 1.7052 27.0531 1.31872C25.5072 0.932249 23.7681 0.739014 21.8358 0.739014L0 13.8791V36.681ZM13.1401 8.85495C15.2657 8.85495 17.1981 8.66172 19.3237 9.04819C19.7101 9.04819 20.2899 9.24143 20.6763 9.43467C21.0628 9.6279 21.4493 9.82114 21.6425 10.0144C22.9952 11.367 23.3816 12.7197 22.9952 14.2656C22.8019 15.0385 22.6087 15.6182 22.029 16.198C21.8357 16.3912 21.4493 16.7777 21.0628 16.9709C19.7101 17.7438 17.971 17.9371 16.2319 17.9371H13.1401V8.85495Z" fill="#465572"/>
<path d="M25.1207 36.6812H38.2608V26.2464H48.1159C49.855 26.0531 51.5942 25.8599 52.9468 25.2802C54.4927 24.8937 55.6521 24.1208 56.6183 23.3478C57.5845 22.5749 58.5507 21.6087 59.1304 20.6425C59.9033 19.6763 60.2898 18.3237 60.6763 16.971C61.0628 15.6184 61.256 14.0725 61.0628 12.5266C61.0628 10.9807 60.8695 9.62802 60.2898 8.27537C59.9033 7.30918 59.3236 6.343 58.7439 5.37682C57.971 4.41063 57.0048 3.63768 56.0386 3.05797C54.8792 2.47826 53.7198 1.89856 52.1739 1.51208C50.628 1.12561 48.8888 0.932373 46.9565 0.932373H25.1207V36.6812ZM38.2608 9.04831C40.3864 9.04831 42.3188 8.85508 44.4444 9.24155C44.8309 9.24155 45.4106 9.43479 45.7971 9.62803C46.1835 9.82126 46.57 10.0145 46.7632 10.2077C48.1159 11.5604 48.5024 12.913 48.1159 14.4589C47.9227 15.2319 47.7294 15.8116 47.1497 16.3913C46.9565 16.5845 46.57 16.971 46.1835 17.1643C44.8309 17.9372 43.0917 18.1304 41.3526 18.1304H38.0676V9.04831H38.2608Z" fill="#647084"/>
<path d="M25.1207 36.6812H38.2608V26.2464H48.1159C49.855 26.0531 51.5942 25.8599 52.9468 25.2802C54.4927 24.8937 55.6521 24.1208 56.6183 23.3478C57.5845 22.5749 58.5507 21.6087 59.1304 20.6425C59.9033 19.6763 60.2898 18.3237 60.6763 16.971C61.0628 15.6184 61.256 14.0725 61.0628 12.5266C61.0628 10.9807 60.8695 9.62802 60.2898 8.27537C59.9033 7.30918 59.3236 6.343 58.7439 5.37682C57.971 4.41063 57.0048 3.63768 56.0386 3.05797C54.8792 2.47826 53.7198 1.89856 52.1739 1.51208C50.628 1.12561 48.8888 0.932373 46.9565 0.932373L25.1207 13.8792V36.6812ZM38.2608 9.04831C40.3864 9.04831 42.3188 8.85508 44.4444 9.24155C44.8309 9.24155 45.4106 9.43479 45.7971 9.62803C46.1835 9.82126 46.57 10.0145 46.7632 10.2077C48.1159 11.5604 48.5024 12.913 48.1159 14.4589C47.9227 15.2319 47.7294 15.8116 47.1497 16.3913C46.9565 16.5845 46.57 16.971 46.1835 17.1643C44.8309 17.9372 43.0917 18.1304 41.3526 18.1304H38.0676V9.04831H38.2608Z" fill="#465572"/>
<path d="M25.1206 25.86C25.7003 25.6668 26.28 25.6668 26.8597 25.4736C28.2124 25.0871 29.3718 24.7006 30.5312 23.9277C31.6907 23.348 32.4636 22.575 33.2365 21.6088C34.0095 20.6426 34.5892 19.6765 35.1689 18.517C35.5554 17.3576 35.9419 16.005 35.9419 14.4591C36.1351 13.1064 35.9419 11.5605 35.7486 10.2079C35.5554 8.8552 35.1689 7.69578 34.5892 6.7296C34.0095 5.76342 33.2365 4.79723 32.4636 4.02428C31.4974 3.25134 30.5312 2.67163 29.3718 2.09192C28.0192 1.51221 26.6665 1.12573 25.1206 1.12573V25.86Z" fill="#EABE24"/>
<path d="M63.1885 2.86499H71.3044C73.0436 2.86499 74.3962 3.25146 75.1692 4.02441C75.5556 4.41088 75.9421 4.99059 76.1353 5.5703C76.3286 6.15001 76.5218 6.92296 76.5218 7.69591C76.5218 9.2418 76.1353 10.5945 75.1692 11.3674C74.7827 11.7539 74.0097 12.1404 73.43 12.3336C72.0774 12.7201 70.145 12.7201 68.2126 12.7201V18.5172H63.3817V2.86499H63.1885ZM68.2126 9.62827H69.3721C70.3382 9.62827 70.9179 9.43504 71.3044 9.2418C71.6909 8.85533 71.8841 8.46885 71.8841 8.08238C71.8841 7.50267 71.6909 7.11619 71.3044 6.92296C71.1112 6.72972 70.9179 6.53649 70.5315 6.53649C69.9518 6.34325 68.9856 6.34325 68.0194 6.34325V9.62827H68.2126ZM76.715 10.4012C76.9083 9.62827 77.1015 9.04856 77.2948 8.66209L77.8745 8.08238C78.0677 7.88914 78.2609 7.69591 78.6474 7.50267C79.4204 7.1162 81.1595 6.72972 82.5121 6.72972C83.8648 6.72972 84.831 6.72972 85.6039 6.92296C85.9904 6.92296 86.3769 7.1162 86.7634 7.30943C87.1498 7.50267 87.3431 7.69591 87.7295 7.88914C88.5025 8.46885 88.889 9.82151 88.889 10.9809V16.0051C88.889 16.9713 88.889 17.3577 89.0822 17.7442C89.0822 17.9375 89.2754 18.1307 89.2754 18.3239H85.2175C84.831 17.7442 84.831 17.551 84.831 17.3577V16.9713C84.2513 17.551 83.6716 17.9375 83.0919 18.1307C82.3189 18.5172 81.3527 18.5172 80.3865 18.5172C79.0339 18.5172 78.0677 18.1307 77.2948 17.551C76.9083 17.1645 76.715 16.9713 76.5218 16.5848C76.3286 16.1983 76.3286 15.8118 76.3286 15.2321C76.3286 14.8457 76.3286 14.4592 76.5218 14.0727C76.715 13.6862 76.9083 13.493 77.1015 13.1065C77.2948 12.9133 77.6812 12.5268 78.2609 12.3336C78.6474 12.1404 79.2271 11.9471 80.0001 11.7539C81.546 11.3674 82.7054 11.1742 83.0919 10.9809C83.6716 10.7877 84.058 10.5945 84.6377 10.4012C84.6377 9.82151 84.4445 9.43504 84.2513 9.2418C83.8648 9.04856 83.4783 8.85533 83.0919 8.85533H82.1257C81.7392 9.04856 81.3527 9.04856 81.1595 9.43504C80.9663 9.62827 80.9663 9.82151 80.773 10.0147L76.715 10.4012ZM84.6377 13.2998C84.058 13.493 83.4783 13.6862 82.7054 13.8795C82.3189 14.0727 81.9324 14.0727 81.546 14.266C81.3527 14.4592 81.1595 14.4592 80.9663 14.6524C80.773 14.8457 80.5798 15.2321 80.5798 15.4254C80.5798 15.8118 80.773 16.0051 80.9663 16.1983C81.3527 16.3916 81.546 16.5848 81.9324 16.5848C82.5121 16.5848 82.8986 16.3916 83.2851 16.1983C84.058 15.8118 84.2513 15.2321 84.4445 14.8457C84.6378 14.266 84.4445 13.6862 84.6377 13.2998ZM88.889 7.30943H93.5266L95.8455 14.8457L97.9711 7.30943H102.222L97.7778 19.4833C97.5846 20.2563 97.1981 20.836 97.0049 21.2225C96.8117 21.609 96.4252 21.9954 96.232 22.1887C95.8455 22.5751 95.459 22.7684 94.8793 22.9616C94.2996 23.1548 93.7199 23.1548 92.9469 23.1548H91.7875C91.401 23.1548 90.8213 22.9616 90.0484 22.9616L89.6619 19.8698C90.2416 20.0631 91.0146 20.2563 91.7875 20.2563C92.3672 20.2563 92.7537 20.0631 92.9469 19.8698C93.1402 19.6766 93.3334 19.6766 93.3334 19.2901C93.5266 19.0969 93.5266 18.9036 93.7199 18.5172L88.889 7.30943Z" fill="#465572"/>
<path d="M63.1885 21.2227H71.3044C73.0436 21.2227 74.3962 21.6091 75.1692 22.3821C75.5556 22.7685 75.9421 23.3483 76.1353 23.928C76.3286 24.5077 76.5218 25.2806 76.5218 26.0536C76.5218 27.5995 76.1353 28.9521 75.1692 29.7251C74.7827 30.1115 74.0097 30.498 73.43 30.6913C72.0774 31.0777 70.145 31.0777 68.2126 31.0777V36.8748H63.3817V21.2227H63.1885ZM68.2126 27.7927H69.3721C70.3382 27.7927 70.9179 27.5995 71.3044 27.4062C71.6909 27.0198 71.8841 26.6333 71.8841 26.2468C71.8841 25.6671 71.6909 25.2806 71.3044 25.0874C71.1112 24.8942 70.9179 24.7009 70.5315 24.7009C69.9518 24.5077 68.9856 24.5077 68.0194 24.5077V27.7927H68.2126ZM78.2609 26.8265C78.8406 26.2468 79.6136 25.8603 80.3865 25.4739C81.1595 25.0874 82.1257 25.0874 83.0919 25.0874C84.2513 25.0874 85.2175 25.2806 85.9904 25.6671C86.7634 26.0536 87.5363 26.44 88.116 27.213C88.5025 27.7927 88.889 28.3724 89.0822 28.9521C89.2754 29.5318 89.4687 30.3048 89.4687 31.0777C89.4687 32.8169 88.889 34.1695 87.7295 35.3289C87.1498 35.9086 86.3769 36.2951 85.6039 36.4884C84.831 36.6816 83.8648 36.8748 82.8986 36.8748C81.9324 36.8748 81.1595 36.6816 80.3865 36.4884C79.6136 36.2951 79.0339 35.9086 78.4542 35.5222C77.6812 34.9425 77.2948 34.3627 76.9083 33.5898C76.5218 32.8169 76.3286 32.0439 76.3286 31.0777C76.5218 29.5318 77.1015 27.9859 78.2609 26.8265ZM81.546 33.3966C81.9324 33.9763 82.5121 34.1695 83.0919 34.1695C83.6716 34.1695 84.2513 33.9763 84.6377 33.3966C84.831 33.2033 85.0242 32.8169 85.0242 32.4304C85.2175 32.0439 85.2175 31.6574 85.2175 31.0777C85.2175 30.1115 85.0242 29.3386 84.6377 28.9521C84.2513 28.3724 83.6716 28.1792 83.0919 28.1792C82.5121 28.1792 81.9324 28.3724 81.546 28.9521C81.3527 29.1454 81.1595 29.5318 81.1595 29.9183C80.9663 30.3048 80.9663 30.6913 80.9663 31.271C80.773 32.2372 81.1595 33.0101 81.546 33.3966Z" fill="#EABE24"/>
<path d="M97.9711 25.4739H102.029V27.4062C102.609 26.6333 103.188 26.0536 103.768 25.8603C104.541 25.4739 105.314 25.4739 106.087 25.4739C107.246 25.4739 108.213 25.8603 108.986 26.6333C109.372 27.0198 109.565 27.4062 109.759 27.9859C109.952 28.5657 109.952 29.1454 109.952 29.9183V37.0681H105.507V30.498C105.507 29.7251 105.314 29.3386 105.121 28.9521C104.734 28.5657 104.348 28.5656 103.961 28.5656C103.382 28.5656 102.995 28.7589 102.609 29.1454C102.416 29.3386 102.416 29.5318 102.222 29.9183C102.222 30.3048 102.029 30.6913 102.029 31.271V36.6816H97.7778V25.4739H97.9711ZM117.295 21.2227V25.4739H119.614V28.5656H117.295V33.2033C117.295 33.3966 117.295 33.3966 117.488 33.5898C117.874 34.1695 118.261 33.9763 118.841 33.9763C119.034 33.9763 119.227 33.783 119.614 33.783L120 36.8748C119.034 37.0681 118.068 37.2613 116.908 37.2613C115.749 37.2613 114.976 37.0681 114.589 36.8748C114.01 36.6816 113.623 36.1019 113.43 35.5222C113.237 35.3289 113.237 34.9425 113.237 34.3628V28.7589H111.691V25.6671H113.237V23.5415L117.295 21.2227Z" fill="#EDA40A"/>
<path d="M91.2078 25.4731H95.459V36.8741H91.2078V25.4731Z" fill="#EABE24"/>
<path d="M34.9757 7.88843L25.1206 13.8788V25.8594C25.7003 25.6662 26.28 25.6662 26.8597 25.473C28.2124 25.0865 29.3718 24.7 30.5312 23.9271C31.6907 23.3474 32.4636 22.5744 33.2365 21.6082C34.0095 20.6421 34.5892 19.6759 35.1689 18.5164C35.5554 17.357 35.9419 16.0044 35.9419 14.4585C36.1351 13.1058 35.9419 11.5599 35.7486 10.2073C35.5554 9.24109 35.3622 8.46814 34.9757 7.88843ZM95.652 25.6662L91.2076 28.1783V36.8739H95.652V25.6662ZM80.5795 36.6807C81.3525 36.8739 82.1254 37.0672 83.0916 37.0672C84.0578 37.0672 85.024 36.8739 85.7969 36.6807C86.5699 36.4875 87.3428 35.9077 87.9225 35.5213C89.082 34.3619 89.6617 33.0092 89.6617 31.2701C89.6617 30.6904 89.6617 30.1107 89.4684 29.5309L85.024 32.043V32.6227C84.8307 33.0092 84.8307 33.3957 84.6375 33.5889C84.251 33.9754 83.6713 34.3619 83.0916 34.3619C82.7051 34.3619 82.3187 34.3619 82.1254 34.1686L78.8404 36.101C79.2269 36.2942 79.8066 36.4875 80.5795 36.6807Z" fill="#EDA40A"/>
</svg>
