<svg width="17" height="16" viewBox="0 0 17 16" fill="none" xmlns="http://www.w3.org/2000/svg">
<path fill-rule="evenodd" clip-rule="evenodd" d="M15.9655 13.3124C15.9655 12.4697 15.4693 11.6576 14.543 11.0258C13.3983 10.2453 11.5567 9.71848 9.47446 9.71848C7.39223 9.71848 5.55065 10.2453 4.40593 11.0258C3.47957 11.6576 2.9834 12.4697 2.9834 13.3124V14.1961C2.9834 14.5352 3.11813 14.8595 3.35692 15.0992C3.59664 15.338 3.92091 15.4727 4.26005 15.4727H14.6898C15.0281 15.472 15.3523 15.3372 15.5914 15.0979C15.8305 14.8586 15.965 14.5343 15.9655 14.1961V13.3124ZM14.5718 14.079H4.37713V13.3124C4.37713 12.8748 4.71069 12.505 5.19106 12.177C6.15645 11.5192 7.71929 11.1122 9.47446 11.1122C11.2296 11.1122 12.7925 11.5192 13.7578 12.177C14.2382 12.505 14.5718 12.8748 14.5718 13.3124V14.079ZM9.47446 1C7.49072 1 5.8805 2.61022 5.8805 4.59397C5.8805 6.57771 7.49072 8.18793 9.47446 8.18793C11.4582 8.18793 13.0684 6.57771 13.0684 4.59397C13.0684 2.61022 11.4582 1 9.47446 1ZM9.47446 2.39373C10.0469 2.41037 10.5904 2.64947 10.9894 3.06028C11.3884 3.47109 11.6117 4.02125 11.6117 4.59397C11.6117 5.16668 11.3884 5.71684 10.9894 6.12765C10.5904 6.53846 10.0469 6.77756 9.47446 6.7942C8.90199 6.77756 8.35854 6.53846 7.9595 6.12765C7.56046 5.71684 7.33724 5.16668 7.33724 4.59397C7.33724 4.02125 7.56046 3.47109 7.9595 3.06028C8.35854 2.64947 8.90199 2.41037 9.47446 2.39373Z" fill="#050731"/>
</svg>
