<svg width="17" height="17" viewBox="0 0 17 17"  xmlns="http://www.w3.org/2000/svg">
<path d="M11.9167 2.51099C12.9779 2.51099 13.5085 2.51099 13.8896 2.76565C14.0546 2.8759 14.1963 3.01757 14.3065 3.18257C14.5612 3.56371 14.5612 4.09428 14.5612 5.15543V12.3332C14.5612 13.7579 14.5612 14.4702 14.1186 14.9128C13.676 15.3554 12.9636 15.3554 11.539 15.3554H7.00562C5.58093 15.3554 4.86859 15.3554 4.42599 14.9128C3.9834 14.4702 3.9834 13.7579 3.9834 12.3332V5.15543C3.9834 4.09428 3.9834 3.56371 4.23807 3.18257C4.34831 3.01757 4.48998 2.8759 4.65498 2.76565C5.03612 2.51099 5.56669 2.51099 6.62784 2.51099"  stroke-width="1.51111"/>
<path d="M7.00586 2.51111C7.00586 1.67655 7.68241 1 8.51697 1H10.0281C10.8626 1 11.5392 1.67655 11.5392 2.51111C11.5392 3.34567 10.8626 4.02222 10.0281 4.02222H8.51697C7.68241 4.02222 7.00586 3.34567 7.00586 2.51111Z"  stroke-width="1.51111"/>
<path d="M7.00586 7.80005L11.5392 7.80005"  stroke-width="1.51111" />
<path d="M7.00586 10.8223L10.0281 10.8223"  stroke-width="1.51111" />
</svg>
