<svg width="21" height="16" viewBox="0 0 21 16" xmlns="http://www.w3.org/2000/svg">
<path  d="M20.4004 12.3124C20.4004 11.4697 19.9042 10.6576 18.9779 10.0258C17.8331 9.24531 15.9916 8.71848 13.9093 8.71848C11.8271 8.71848 9.98553 9.24531 8.84081 10.0258C7.91444 10.6576 7.41828 11.4697 7.41828 12.3124V13.1961C7.41828 13.5352 7.553 13.8595 7.7918 14.0992C8.03152 14.338 8.35579 14.4727 8.69493 14.4727H19.1247C19.4629 14.472 19.7871 14.3372 20.0263 14.0979C20.2654 13.8586 20.3999 13.5343 20.4004 13.1961V12.3124ZM19.0067 13.079H8.81201V12.3124C8.81201 11.8748 9.14557 11.505 9.62594 11.177C10.5913 10.5192 12.1542 10.1122 13.9093 10.1122C15.6645 10.1122 17.2273 10.5192 18.1927 11.177C18.6731 11.505 19.0067 11.8748 19.0067 12.3124V13.079ZM1.79412 13.079V12.5373C1.79412 12.1982 2.06357 11.9194 2.43616 11.6658C3.23895 11.1185 4.53976 10.7831 5.99946 10.7831C6.18428 10.7831 6.36153 10.7096 6.49222 10.5789C6.62291 10.4483 6.69633 10.271 6.69633 10.0862C6.69633 9.90137 6.62291 9.72412 6.49222 9.59343C6.36153 9.46275 6.18428 9.38933 5.99946 9.38933C4.2127 9.38933 2.63314 9.84461 1.65103 10.5145C0.832446 11.072 0.400391 11.793 0.400391 12.5373V13.2853C0.400391 13.6 0.52537 13.9019 0.74786 14.1246C0.97035 14.3473 1.27215 14.4725 1.58692 14.4727H5.99946C6.18428 14.4727 6.36153 14.3993 6.49222 14.2686C6.62291 14.1379 6.69633 13.9607 6.69633 13.7759C6.69633 13.591 6.62291 13.4138 6.49222 13.2831C6.36153 13.1524 6.18428 13.079 5.99946 13.079H1.79412ZM13.9093 1C11.9256 1 10.3154 2.61022 10.3154 4.59397C10.3154 6.57771 11.9256 8.18793 13.9093 8.18793C15.8931 8.18793 17.5033 6.57771 17.5033 4.59397C17.5033 2.61022 15.8931 1 13.9093 1ZM13.9093 2.39373C14.4818 2.41037 15.0252 2.64947 15.4243 3.06028C15.8233 3.47109 16.0465 4.02125 16.0465 4.59397C16.0465 5.16668 15.8233 5.71684 15.4243 6.12765C15.0252 6.53846 14.4818 6.77756 13.9093 6.7942C13.3369 6.77756 12.7934 6.53846 12.3944 6.12765C11.9953 5.71684 11.7721 5.16668 11.7721 4.59397C11.7721 4.02125 11.9953 3.47109 12.3944 3.06028C12.7934 2.64947 13.3369 2.41037 13.9093 2.39373ZM5.99946 2.85831C5.18066 2.88267 4.40356 3.22506 3.83301 3.81285C3.26245 4.40064 2.94333 5.18758 2.94333 6.00674C2.94333 6.82591 3.26245 7.61285 3.83301 8.20063C4.40356 8.78842 5.18066 9.13081 5.99946 9.15518C7.73698 9.15518 9.14836 7.74379 9.14836 6.00628C9.14836 4.26876 7.73698 2.85831 5.99946 2.85831ZM5.99946 4.25204C6.23476 4.24438 6.46919 4.28411 6.68883 4.36887C6.90846 4.45363 7.10881 4.58169 7.27797 4.74542C7.44712 4.90916 7.58163 5.10524 7.67348 5.322C7.76534 5.53877 7.81268 5.77179 7.81268 6.00721C7.81268 6.24263 7.76534 6.47565 7.67348 6.69241C7.58163 6.90917 7.44712 7.10525 7.27797 7.26899C7.10881 7.43273 6.90846 7.56079 6.68883 7.64554C6.46919 7.7303 6.23476 7.77004 5.99946 7.76238C5.54385 7.74755 5.11185 7.55614 4.7948 7.2286C4.47775 6.90106 4.30048 6.46306 4.30048 6.00721C4.30048 5.55135 4.47775 5.11336 4.7948 4.78582C5.11185 4.45828 5.54385 4.26686 5.99946 4.25204Z" />
</svg>
